<svg width="512" height="512" viewBox="0 0 512 512" fill="none" xmlns="http://www.w3.org/2000/svg">
  <!-- Background -->
  <rect width="512" height="512" rx="64" fill="#1e1e2e"/>
  
  <!-- Dice -->
  <g transform="translate(128, 128)">
    <!-- Dice body -->
    <rect x="0" y="0" width="256" height="256" rx="32" fill="#2c3e50" stroke="#34495e" stroke-width="8"/>
    
    <!-- Dice dots -->
    <circle cx="64" cy="64" r="16" fill="#ecf0f1"/>
    <circle cx="192" cy="64" r="16" fill="#ecf0f1"/>
    <circle cx="128" cy="128" r="16" fill="#ecf0f1"/>
    <circle cx="64" cy="192" r="16" fill="#ecf0f1"/>
    <circle cx="192" cy="192" r="16" fill="#ecf0f1"/>
  </g>
  
  <!-- Book/Notes icon -->
  <g transform="translate(320, 320)">
    <!-- Book -->
    <rect x="0" y="0" width="128" height="160" rx="8" fill="#e74c3c" stroke="#c0392b" stroke-width="4"/>
    
    <!-- Pages -->
    <rect x="8" y="8" width="112" height="144" rx="4" fill="#ecf0f1"/>
    
    <!-- Lines representing text -->
    <rect x="16" y="24" width="96" height="4" rx="2" fill="#34495e"/>
    <rect x="16" y="36" width="80" height="4" rx="2" fill="#34495e"/>
    <rect x="16" y="48" width="88" height="4" rx="2" fill="#34495e"/>
    <rect x="16" y="60" width="72" height="4" rx="2" fill="#34495e"/>
    <rect x="16" y="72" width="96" height="4" rx="2" fill="#34495e"/>
    <rect x="16" y="84" width="84" height="4" rx="2" fill="#34495e"/>
    <rect x="16" y="96" width="92" height="4" rx="2" fill="#34495e"/>
    <rect x="16" y="108" width="76" height="4" rx="2" fill="#34495e"/>
    <rect x="16" y="120" width="88" height="4" rx="2" fill="#34495e"/>
    <rect x="16" y="132" width="80" height="4" rx="2" fill="#34495e"/>
  </g>
</svg> 